<?xml version="1.0" encoding="UTF-8"?>
<svg id="Layer_1" xmlns="http://www.w3.org/2000/svg" version="1.1" viewBox="0 0 160 160">
  <!-- Generator: Adobe Illustrator 30.1.0, SVG Export Plug-In . SVG Version: 2.1.1 Build 136)  -->
  <defs>
    <style>
      .st0 {
        fill: none;
      }

      .st1 {
        fill: #c8563e;
      }

      .st2 {
        fill: #fff;
      }

      .st3 {
        fill: #202020;
      }
    </style>
  </defs>
  <rect class="st2" x="26.97" y="66.8" width="16.24" height="16.24" rx="3.63" ry="3.63" transform="translate(-42.7 46.75) rotate(-45)"/>
  <rect class="st1" x="28.79" y="68.62" width="12.6" height="12.6" rx="1.4" ry="1.4" transform="translate(-42.7 46.76) rotate(-45)"/>
  <g>
    <path class="st3" d="M47.12,76.11c-.02-.08-.04-.17-.06-.26.07.15.16.38.24.65-.31-1.34-1.01-2.84-1.89-4.17-.88-1.34-1.92-2.52-2.82-3.37-.58-.67-1.17-1.2-1.3-1.2-.12,0,.28.53.86,1.2.12.15.26.33.34.45.71,1.06,1.55,2.33,2.3,3.78-.13-.29-.29-.58-.43-.86.24.41.46.82.71,1.28l-.04-.19c.71,1.47,1.49,3.43,1.89,4.39.39.97.68.56.37-1.03l-.18-.7Z"/>
    <path class="st3" d="M46.33,73.04c.46.92.81,1.83,1.09,2.74l.03.19.13-.12h-.02c-.44-.8-1.1-2.12-1.86-3.28l-.28-.4c-.15-.19-.25-.3-.31-.33-.12-.05.06.34.39.89l.35.64c.4.8.87,1.83,1.23,2.77.38.94.64,1.8.86,2.23.11.19.15,0,.22-.07.12.04.1-.63-.16-1.48-.27-.85-.63-1.53-.76-1.54-.05-.14-.11-.29-.16-.43l.18.31c-.17-.2-.53-.93-.86-1.44-.14-.27-.31-.52-.47-.78l.06.57c.09.13.17.27.25.4,0-.04-.02-.1-.02-.1.46.76.89,1.49,1.25,2.39.17.37.32.74.45,1.12.14.3.2.25.14-.11l-.1-.54c.01.08.02.16.04.25-.31-1.22-.83-2.47-1.4-3.62-.09-.18-.23-.39-.3-.47-.07-.07-.04.02.05.21Z"/>
    <g>
      <path class="st3" d="M48.14,77.15c.03.2.08.39.15.67.03.07.04.1.05.11-.01-.11-.02-.25-.05-.4-.05-.28-.11-.42-.14-.39Z"/>
      <path class="st3" d="M48.33,77.94c0,.1.02.17.02.17,0-.04,0-.08,0-.11,0-.03,0-.03,0-.03,0,0,0,0,0-.02Z"/>
      <path class="st3" d="M28.24,81.1c1.42,1.46,2.99,2.83,4.61,4.17,1.61,1.32,3.24,2.54,4.97,3.4.12.06.22.09.23.08.01,0-.07-.06-.18-.11-1.73-.85-3.36-2.07-4.96-3.38-1.61-1.33-3.18-2.7-4.6-4.15-.1-.1-.18-.17-.21-.17-.01,0,.05.08.14.17Z"/>
      <path class="st3" d="M50.08,83.23c.02.1.04.09.04-.01,0-.09-.02-.24-.05-.34-.02-.08-.04-.07-.04.01,0,.1.03.25.05.33Z"/>
      <path class="st3" d="M51.35,84.06c.04.64.02,1.26-.03,1.82-.01.1-.03.22-.06.31.03-.03.03.1-.02.33-.24,1.17-.82,2.35-1.67,3.27-.85.93-1.91,1.65-3.07,2.12-1.15.47-2.39.74-3.64.8-1.25.06-2.53-.13-3.69-.46-.04,0-.1,0-.21-.01-.34-.05-1-.24-1.63-.55-.16-.08-.32-.15-.47-.23-1.9-.96-3.56-2.19-5.1-3.47-.34-.24-.71-.53-1.11-.85-1.36-1.05-2.7-2.15-4.01-3.38.07.09.11.15.09.16-.06.01-.38-.26-.72-.61-.17-.17-.34-.35-.51-.53.48.52.97,1.03,1.46,1.53.07.07.13.14.2.2.56.53,1.13,1.05,1.72,1.57,2.56,2.19,5.17,4.39,8.4,5.76,1.6.67,3.34,1.12,5.15,1.1,1.78-.01,3.54-.46,5.11-1.32.1-.06.26-.15.36-.19.07-.02.06,0-.05.07-1.93,1.21-4.04,1.74-6.25,1.69-2.23-.08-4.39-.78-6.52-1.95-2.54-1.41-4.64-3.14-6.72-4.86-2.08-1.76-4.14-3.69-5.93-6.04-1.81-2.49-3.27-5.24-3.86-8.41-.56-3.1-.38-6.41,1.1-9.61.52-1.07,1.17-2.08,1.98-2.98.83-.88,1.76-1.67,2.84-2.27,1.07-.6,2.29-1.04,3.61-1.17,1.35-.15,2.68.09,3.76.43,1.11.35,2.01.75,2.92,1.15.92.41,1.84.87,2.74,1.39.89.51,1.83,1.12,2.64,1.75.8.6,1.58,1.22,2.35,1.88,2.35,1.91,4.11,4.16,4.15,4.63.02.28-.56-.14-1.48-.96.17.17.33.36.5.54.25.29.51.58.75.89.7.86,1.22,1.65,1.49,2.19l.37.74c.43,1.03,1.16,2.64,1.28,3.56l-.17-.14.07.2c.25.64.3,1.11.28,1.29l-.14-.02c-.19-.08-.41-.35-.75-.78-.04.04-.11,0-.21-.1.08.46.05.7-.23.44.08.25.01.24-.15-.04-.05-.09-.11-.21-.17-.33h0c.04.16.05.2.09.38.1.24.14.39.14.39.22.66.24.65.41,1.22.11.5.14.82.14.82-.07.6-.09.6-.2.54l-.05-.1c.06.43.06.46.08.58,0,.11,0,.21,0,.21t-.05.11s-.04.03-.04.03c-.11-.22-.11-.22-.13-.23-.03-.06-.06-.13-.06-.13-.08-.27-.1-.38-.12-.42,0-.31,0-.47-.01-.55,0-.08,0-.08,0-.08l-.08-.11.02-.16-.03.09-.06-.31.05.35c-.18-.71-.19-.71-.29-.98-.1-.29-.2-.53-.22-.56,0,.03-.02.04-.02.04-.27-.74-.29-.74-.59-1.45-.02-.06-.04-.12-.05-.18-.05-.06-.12-.19-.19-.33l-.18-.37-.05-.07h0c-.08-.11-.13-.19-.2-.28-.04-.06-.04-.06-.04-.06h0c-.14-.2-.31-.5-.88-1.23-.13-.21-.24-.41-.36-.58l.1.18c.06.12-.04.04,0,.11.89,1.48,1.74,3.13,2.28,4.82.12.3.18.59.15.65-.03.05-.11-.15-.23-.45-1.33-3.29-4.03-7.04-6.75-9.86-.72-.73-1.49-1.44-2.28-2.12l.1.11c-.2-.19-.4-.36-.61-.54l-.07-.06.43.44.31.29c1.83,1.58,3.29,3.22,4.67,5.03.73.98,1.28,1.87,1.82,2.86.16.25.22.44.18.43-.04-.01-.19-.23-.34-.47-1.99-3.18-5.16-6.36-7.49-8.5-.55-.46-1.04-.83-1.49-1.17l-.03-.02.32.28c-.41-.3-.62-.48-1.02-.74l.11.16c-1.07-.68-2.31-1.28-3.54-1.82-1.21-.54-2.26-.85-3.15-.84-.07,0-.14,0-.21.01-.78.15-1.58.49-2.44,1.07.3-.19.59-.35.91-.48-.65.33-1.25.79-1.83,1.34-.79.75-1.47,1.74-1.93,2.73-.47.99-.74,1.94-.94,2.56-.31,2.35.04,4.78,1.02,6.96.97,2.22,2.46,4.24,4.2,6.07.18.19.33.37.35.42,0,.04-.14-.07-.32-.26-1.27-1.3-2.43-2.7-3.35-4.23-.92-1.54-1.65-3.17-1.95-4.88.23,1.44.72,2.83,1.43,4.19.69,1.35,1.57,2.64,2.58,3.85.26.31.53.61.81.91.27.3.54.59.82.89,1.43,1.46,2.95,2.79,4.53,4.09,1.58,1.29,3.19,2.51,4.97,3.42,1.5.77,3.02,1.25,4.46,1.36,1.43.1,2.93-.2,4.21-.89.89-.49,1.61-1.14,2.03-1.89.43-.73.62-1.58.6-2.53,0-.47-.06-.97-.15-1.46-.05-.25-.1-.5-.17-.75l-.23-.94c-.28-1.24-.52-2.38-.89-3.32-.2-.5-.36-.87-.32-.96.04-.09.28.15.5.64.44.95.72,2.18,1.03,3.49l.25,1c.08.28.14.56.19.84.1.56.16,1.11.15,1.64-.01,1.07-.28,2.03-.86,2.84-.57.82-1.46,1.49-2.48,1.93-1.03.45-2.19.67-3.35.66-1.14-.01-2.34-.29-3.49-.73-2.32-.89-4.47-2.47-6.57-4.21-.91-.76-1.79-1.51-2.64-2.29,0,.02,0,.03,0,.04-.02.03-.13-.02-.28-.13.95.89,1.95,1.76,2.97,2.62,1.45,1.14,2.93,2.22,4.5,3.09,1.56.86,3.27,1.52,5.01,1.7,2.38.22,4.71-.44,6.25-1.9.93-.98,1.39-2.24,1.41-3.63.02-.69-.07-1.41-.22-2.12l-.54-2.35c-.03-.12-.05-.25-.05-.3,0-.05.03.02.07.14l.42,1.65c.16.58.27,1.03.36,1.55.16,1.01.17,2.05-.09,3,.13-.28.22-.46.28-.42.06.04.07.3,0,.68.15-.45.25-.91.3-1.39.03-.3.06-.53.09-.52.04,0,.06.25.03.54-.16,2-1.37,3.76-3.14,4.71-2.08,1.21-4.7,1.5-7.07.83.32.14.56.24.67.32h0c.38.09.76.14,1.14.17,1.75.12,3.56-.24,5.09-1.08,1.54-.83,2.74-2.22,3.14-3.89.21-.83.25-1.71.18-2.58-.06-.88-.29-1.73-.49-2.67-.38-1.81-.69-3.66-1.66-5.05-.08-.11-.13-.2-.12-.21.01-.01.08.06.15.16,1.19,1.71,1.4,4.01,1.93,6.2h0c0-.1,0-.12.04-.02.03.08.06.25.07.33,0,.1-.01.09-.04.02.4,1.95.3,4.06-.81,5.67-1.1,1.61-2.97,2.62-4.91,3.01,1.81-.32,3.57-1.19,4.72-2.59,1.18-1.4,1.54-3.31,1.34-5.14-.06-.4-.14-.79-.25-1.19-.03-.11-.05-.25-.04-.3,0-.03.04.05.07.16l.08.33c-.14-.68-.2-1.26-.11-1.26.09.02.29.61.43,1.35.37,1.94.26,4.11-.89,5.79-.1.19-.25.35-.38.53-.12.19-.28.34-.42.51,1.16-1.07,1.84-2.62,1.97-4.18.08-.78.04-1.57-.06-2.35-.11-.78-.3-1.52-.42-2.28-.05-.26-.07-.49-.04-.5.03-.01.09.19.15.45.28,1.3.69,2.66.66,4.1.02,1.42-.37,2.89-1.21,4.11-.85,1.2-2.07,2.1-3.41,2.65-1.34.55-2.79.8-4.24.76-1.93.03-3.81-.49-5.58-1.28l.66.33c1.44.66,2.91,1.11,4.46,1.21,1.52.1,3.02-.14,4.4-.67,1.37-.53,2.66-1.39,3.58-2.6.96-1.19,1.42-2.74,1.46-4.27,0-.15.02-.28.03-.3.01-.02.03.09.02.24-.03,1.5-.45,3-1.34,4.21-.87,1.21-2.12,2.12-3.53,2.69-2.33.97-4.9.96-7.13.34,2.27.7,4.8.68,7-.18,1.1-.43,2.16-1.03,3.02-1.89.87-.85,1.53-1.94,1.87-3.12.05-.21.12-.41.16-.54,0-.01,0-.06,0-.12.09-.6.11-1.25.09-1.91,0-.12,0-.28,0-.35.01-.07.03,0,.04.15ZM41.78,66.45s.05.06.07.09c-.08-.09-.16-.18-.25-.29l-.32-.44s.26.31.5.64ZM46.34,71.28h0c.07.16.12.28.12.28-.05-.12-.09-.21-.12-.28ZM22.84,74.02c-.83-1.96-1.12-4.11-.89-6.17-.03.51-.06,1.01-.02,1.52.02,1.59.32,3.15.91,4.65ZM44.42,70.01c-.27-.43-.53-.85-.79-1.27-.27-.3-.54-.59-.82-.9-.74-.83-1.52-1.59-2.29-2.34.08.12-.11-.06-.21-.14l-.31-.26c.84.78,1.64,1.6,2.42,2.46.7.78,1.43,1.65,1.99,2.45ZM48.27,76.69s0,.06.01.09l-.12-.17s.04.03.11.08ZM48.46,76.96s-.02-.1-.04-.15c.04.05.05.1.04.15ZM48.06,75.56c.02.09.02.14.04.21-.04-.21-.04-.21-.04-.21ZM49.27,73.83c-.18-.14-.36-.28-.55-.41.2.15.37.31.56.47v-.06Z"/>
    </g>
  </g>
  <g>
    <path class="st3" d="M49.99,77.24c-.06.09-.13.18-.19.27.09-.19.24-.46.42-.76-.93,1.44-2.06,3-3.23,4.4-1.17,1.41-2.38,2.69-3.35,3.66-.76.64-1.4,1.23-1.42,1.36-.01.13.61-.26,1.39-.89.17-.13.35-.27.51-.39,1.19-.84,2.56-1.99,3.94-3.47-.28.27-.57.55-.85.82.41-.41.81-.82,1.22-1.33l-.19.14c1.41-1.43,2.93-3.89,3.33-5.32.23-.7.17-.97,0-.81-.18.16-.55.7-1.07,1.58l-.5.75Z"/>
    <path class="st3" d="M47.44,79.93c.77-.86,1.45-1.75,2.1-2.68l.14-.18h-.18s0,.01,0,.01c-.41.98-1.33,2.47-2.33,3.69l-.35.44c-.16.21-.26.37-.27.43-.03.14.35-.18.84-.73l.55-.66c.69-.79,1.51-1.89,2.12-3.01.63-1.1,1.04-2.2,1.12-2.81.04-.28-.13-.08-.22-.05-.08-.11-.45.61-.92,1.55-.48.93-.88,1.74-.84,1.85-.1.15-.21.3-.31.44.07-.13.13-.25.19-.37-.07.3-.58,1.11-.97,1.7-.19.3-.42.56-.63.85l.56-.32c.11-.15.21-.31.31-.46-.03.03-.09.08-.09.08.57-.89,1.09-1.74,1.62-2.79.22-.44.42-.89.6-1.35.13-.38.04-.37-.18,0l-.33.56c.05-.09.1-.17.16-.25-.72,1.32-1.58,2.61-2.5,3.73-.15.17-.31.39-.37.5-.05.09.04.03.19-.14Z"/>
    <g>
      <path class="st3" d="M50.17,75.52c.12-.21.25-.41.38-.73.02-.08.03-.12.04-.15-.06.11-.13.27-.23.42-.17.29-.23.46-.19.46Z"/>
      <path class="st3" d="M50.58,74.64c.05-.11.09-.18.09-.18-.03.04-.05.08-.07.12-.01.04-.01.04-.01.04,0,0,0,0,0,.03Z"/>
      <path class="st3" d="M25.79,65.68c1.72-1.41,3.51-2.65,5.32-3.85,1.83-1.2,3.76-2.37,5.95-3.21.15-.05.27-.11.27-.13,0-.01-.12.02-.25.07-2.2.83-4.13,2.01-5.96,3.2-1.81,1.2-3.6,2.43-5.32,3.84-.12.09-.2.18-.21.2,0,.01.09-.04.2-.13Z"/>
      <path class="st3" d="M50.78,68.62c.01-.11,0-.1-.04,0-.03.09-.07.25-.08.35-.01.09,0,.09.04,0,.04-.1.07-.27.08-.35Z"/>
      <path class="st3" d="M49.76,67.51c.06-.55.06-1.07-.01-1.51-.01-.08-.01-.18-.02-.25-.02.03-.05-.07-.08-.25-.31-1.83-1.63-3.36-3.41-4.22-.88-.43-1.86-.72-2.85-.84-1-.11-1.98-.05-3,.16-.02.02-.07.05-.16.08-.27.11-.81.26-1.38.43-.14.04-.29.08-.43.13-1.74.57-3.41,1.47-5.05,2.46-.35.25-.72.5-1.11.77-1.36.98-2.69,1.99-3.99,3.07.09-.05.15-.08.17-.06,0,.05-.28.32-.64.61l-.52.44c.5-.42,1.03-.82,1.56-1.21.07-.05.14-.1.21-.15.58-.43,1.17-.86,1.79-1.3,2.71-1.88,5.32-3.68,8.07-4.61,1.37-.47,2.78-.73,4.12-.63,1.36.08,2.71.51,3.84,1.2.07.05.18.13.24.18.03.04.02.05-.06,0-1.42-.88-3.06-1.21-4.64-1.14-1.57.09-3.26.6-5.07,1.48-2.16,1.06-4.25,2.56-6.34,4.08-2.06,1.53-4.01,3.15-5.66,5-1.75,1.89-3.09,4.01-3.69,6.21-.62,2.23-.62,4.71.18,6.85.28.71.64,1.37,1.07,1.95.45.55.96,1.07,1.52,1.45.56.38,1.16.64,1.72.75.54.11,1.12.08,1.86-.08.71-.15,1.58-.44,2.41-.73.83-.29,1.63-.61,2.4-.98.78-.37,1.46-.74,2.19-1.23.75-.49,1.5-1,2.22-1.55,2.16-1.63,3.99-3.22,4.43-3.26.26-.02-.04.53-.8,1.38.17-.15.32-.3.49-.45.26-.24.53-.46.77-.71.72-.68,1.32-1.27,1.74-1.61l.55-.49c.78-.62,1.86-1.79,2.45-2.38v.21s.11-.15.11-.15c.4-.5.64-.86.81-.94l.08.11c.05.18.04.54-.13,1.05.05,0,.06.09.03.23.34-.33.57-.45.5-.07.18-.22.2-.16.05.14-.05.1-.12.22-.19.34h0c.11-.13.15-.16.28-.31.16-.23.24-.37.24-.37.37-.65.39-.64.69-1.21.27-.49.47-.78.47-.78.45-.49.44-.51.5-.38l-.02.12c.21-.46.23-.49.29-.62.06-.11.12-.22.12-.22q.06,0,.11-.08s.05,0,.05,0c-.05.29-.05.29-.04.3-.02.08-.03.16-.03.16-.11.32-.15.45-.17.5-.19.32-.3.46-.36.54-.05.08-.05.08-.05.08l-.02.16-.13.13.09-.06-.19.31.22-.36c-.38.77-.39.77-.55,1.07-.18.31-.31.58-.33.61.03-.02.04-.01.04-.01-.48.78-.49.77-.99,1.5-.05.05-.1.1-.15.15-.04.08-.13.22-.23.36l-.28.37-.05.08h0c-.09.13-.15.22-.22.32-.04.06-.05.07-.05.07h0c-.16.22-.36.55-.99,1.35-.19.2-.35.39-.53.55l.17-.15c.11-.1.05.03.11-.03,1.36-1.35,2.69-3.02,3.77-4.86.19-.33.38-.64.43-.68.06-.03-.02.24-.22.58-.94,1.97-2.33,3.96-3.98,5.65-1.64,1.71-3.47,3.19-5.22,4.37-.91.65-1.84,1.26-2.78,1.85l.14-.07-.75.44-.08.05.6-.28.39-.23c2.19-1.38,4.15-2.73,6.1-4.39,1.03-.91,1.94-1.7,2.86-2.67.24-.25.4-.43.4-.37,0,.05-.19.32-.42.56-2.9,3.42-6.98,6.28-10.02,7.82-.66.41-1.4.79-2,1.03l-.03.02.48-.17c-.55.26-.87.36-1.38.56h.22c-1.38.58-2.8,1.07-4.22,1.48-1.42.42-3.14.76-4.81.41-.13-.02-.25-.05-.37-.08-1.38-.25-2.68-.84-3.9-1.84.41.35.83.66,1.29.95-1.03-.56-1.91-1.31-2.7-2.24-1.08-1.26-1.84-2.86-2.2-4.31-.38-1.45-.4-2.75-.34-3.56-.13-2.95.59-5.94,2.02-8.5,1.39-2.56,3.3-4.73,5.36-6.6.21-.19.42-.35.48-.36.04,0-.09.14-.3.33-2.9,2.7-5.63,6.01-6.79,10.18.5-1.71,1.31-3.32,2.28-4.75.97-1.45,2.11-2.78,3.35-3.99.31-.32.63-.62.96-.92.32-.3.66-.57.99-.85,1.68-1.41,3.4-2.64,5.14-3.83,1.75-1.18,3.57-2.37,5.71-3.31,1.83-.8,3.69-1.32,5.72-1.37,2.02-.03,4.03.42,5.96,1.53,1.34.79,2.56,1.91,3.33,3.36.8,1.45,1.09,3.11,1.01,4.61-.03.76-.15,1.49-.3,2.19-.08.35-.17.7-.28,1.04l-.25.85c-.33,1.16-.65,2.47-1.3,3.88-.33.76-.86,1.44-.98,1.47-.13.04.21-.53.57-1.28.7-1.46,1.02-2.85,1.36-4.1l.26-.92c.11-.36.2-.72.29-1.09.16-.74.27-1.51.28-2.3.05-1.57-.34-3.3-1.26-4.69-.9-1.4-2.19-2.42-3.57-3.11-1.39-.69-2.89-1.06-4.41-1.14-1.55-.07-3.03.18-4.44.6-2.83.86-5.28,2.39-7.61,3.96-1.01.68-1.99,1.36-2.95,2.08.02,0,.03,0,.04,0,.02.03-.05.12-.19.26,1.09-.82,2.22-1.58,3.36-2.33,1.56-1.09,3.18-2.15,5.01-3.01,1.83-.84,3.87-1.49,6.14-1.47,3.07.08,5.86,1.3,7.71,3.63.6.72,1.07,1.57,1.36,2.48.29.91.38,1.86.35,2.77-.03.92-.19,1.81-.42,2.67l-.68,2.36c-.03.13-.08.26-.11.3-.03.04-.02-.03.01-.16l.42-1.62c.14-.51.33-1.16.44-1.76.22-1.23.28-2.55,0-3.85.04.42,0,.67-.07.64-.07-.02-.16-.33-.31-.78.13.56.19,1.14.19,1.7,0,.35-.05.62-.08.61-.04-.01-.04-.28-.04-.61,0-1.14-.26-2.3-.81-3.33-.54-1.03-1.36-1.88-2.28-2.53-2.25-1.53-5.08-2.03-7.69-1.52.37-.03.64,0,.78.04h0c.4-.05.81-.07,1.22-.07,1.86-.02,3.76.45,5.39,1.47,1.63,1,2.94,2.71,3.27,4.69.37,1.96-.18,3.98-.76,5.69-.55,1.75-1.01,3.69-2.37,5.29-.11.12-.21.21-.22.2-.01,0,.06-.11.15-.22.82-.94,1.31-2.05,1.7-3.13.39-1.09.67-2.17,1.02-3.23h0c-.04.1-.06.11-.04,0,.02-.09.07-.26.11-.35.04-.1.05-.09.04,0,.61-2.05.69-4.46-.46-6.41-1.14-1.93-3.12-3.12-5.14-3.65,1.88.52,3.67,1.6,4.78,3.28.55.83.92,1.79,1.04,2.78.12.99.04,1.98-.16,2.94-.07.42-.15.84-.27,1.26-.03.11-.09.26-.12.3-.02.03-.01-.06.02-.17l.09-.35c-.23.71-.46,1.19-.53,1.16-.08-.06.07-.67.29-1.38.54-1.9.64-4.05-.33-5.82-.09-.2-.23-.36-.34-.54-.12-.18-.28-.33-.41-.49.99,1.18,1.44,2.73,1.38,4.25-.02.76-.16,1.51-.36,2.25-.2.73-.49,1.45-.72,2.19-.08.25-.17.46-.2.46-.03,0,0-.21.09-.47.38-1.32.85-2.57.91-3.89.11-1.31-.15-2.61-.78-3.71-1.31-2.22-3.98-3.45-6.56-3.6-1.71,0-3.42.5-5.01,1.23l.63-.22c1.34-.44,2.7-.73,3.98-.72,1.29,0,2.57.27,3.73.78,1.16.51,2.21,1.28,2.92,2.32.74,1.02,1.06,2.33.99,3.7,0,.14-.03.25-.04.27-.02.01-.02-.08-.01-.22.08-1.33-.23-2.57-.9-3.58-.67-1.01-1.66-1.81-2.82-2.35-1.95-.92-4.06-1.05-6-.58,2-.41,4.02-.22,5.82.61,1.78.8,3.23,2.3,3.6,4.2.03.17.05.34.05.45,0,0,.02.04.03.09.09.48.1,1.03.06,1.6,0,.11-.03.24-.06.3-.02.05-.03-.01-.02-.13ZM40.93,85.57s.07-.04.1-.06c-.1.07-.21.14-.33.22l-.5.25s.37-.2.73-.41ZM45.69,80.57h0c.15-.11.25-.2.25-.2-.1.08-.18.15-.25.2ZM19.54,73.53c-1.21,2.22-1.86,4.71-1.97,7.22.01-.61.03-1.23.13-1.84.27-1.88.91-3.73,1.85-5.38ZM44.72,82.79c-.5.4-.9.7-1.3.95-.3.29-.62.58-.96.86-.9.76-1.83,1.43-2.74,2.08.14-.06-.08.1-.19.18l-.34.25c1-.66,1.98-1.37,2.95-2.12.88-.68,1.79-1.48,2.58-2.2ZM49.73,75.83s.04-.06.06-.09l-.04.24s0-.06-.02-.15ZM49.79,75.45c-.03.05-.05.1-.08.16,0-.07.04-.12.08-.16ZM48.97,76.87c.06-.08.1-.12.14-.19q-.14.19-.14.19ZM46.84,76.9c-.01.22-.02.45-.05.66.04-.23.06-.47.09-.7l-.04.04Z"/>
    </g>
  </g>
  <g>
    <rect class="st0" x="56.36" y="66.59" width="92.98" height="41.59"/>
    <path class="st1" d="M61.21,83.47c.67-1.03.84-1.62.84-2.98v-3.99l-3.09-5.48c-.78-1.41-1.43-2.25-2.25-2.83v-.04h4.58v.04c-.61.44-.55,1.55.02,2.58l2.6,4.74,1.93-3.38c1.18-2.04.78-3.32.29-3.95v-.04h3.51v.04c-1.07.99-1.6,1.74-2.67,3.57l-2.71,4.7v4.03c0,1.39.15,1.95.84,2.98v.04h-3.91v-.04Z"/>
    <path class="st1" d="M71.81,78.52v-6.7c0-1.68-.15-2.37-.86-3.63v-.04h3.93v.04c-.59,1.07-.84,1.95-.84,3.63v6.63c0,3.3,1.66,4.47,3.86,4.47,3.07,0,4.07-2.23,4.07-4.66v-6.05c0-1.85-.27-2.6-1.51-4.03v-.04h3.74l.11.04c-1.18,1.43-1.45,2.18-1.45,4.03v6.03c0,3-1.3,5.58-5.31,5.58-3.11,0-5.73-1.53-5.73-5.31Z"/>
    <path class="st1" d="M85.57,83.24l9.07-14.34-3.13.08c-2.69.08-3.93,1.34-5.19,3.63l-.36-.15,1.07-4.33h10.46v.27l-9.05,14.36,3.78-.11c2.69-.08,4.01-1.43,5.31-3.97l.36.15-1.13,4.66h-11.19v-.27Z"/>
    <path class="st1" d="M98.82,83.51v-.04c.97-1.03,1.32-1.89,1.97-3.61l4.39-11.88h.86l4.45,12.07c.71,1.91,1.18,2.65,1.93,3.42v.04h-4.12v-.04c.4-.59.46-1.85-.15-3.53l-.73-2.02h-5.06l-.4,1.09c-.9,2.44-.38,3.78.08,4.45v.04h-3.23ZM107.11,77.11l-2.23-6.05-2.23,6.05h4.45Z"/>
    <path class="st1" d="M115.7,70.64l.1,8.8c0,1.85.25,2.6,1.45,4.03v.04h-3.61v-.04c1.03-1.43,1.26-2.18,1.26-4.03v-8.61c-.17-1.2-.61-1.83-1.66-2.65v-.04h3.32l8.86,11.7-.06-7.62c-.02-1.85-.27-2.6-1.3-4.03v-.04h3.42v.04c-1.01,1.43-1.26,2.18-1.26,4.03v11.3l-.88.06-9.64-12.93Z"/>
    <path class="st1" d="M128.32,83.51v-.04c.97-1.03,1.32-1.89,1.97-3.61l4.39-11.88h.86l4.45,12.07c.71,1.91,1.18,2.65,1.93,3.42v.04h-4.12v-.04c.4-.59.46-1.85-.15-3.53l-.73-2.02h-5.06l-.4,1.09c-.9,2.44-.38,3.78.08,4.45v.04h-3.23ZM136.62,77.11l-2.23-6.05-2.23,6.05h4.45Z"/>
  </g>
</svg>